<?xml version="1.0" encoding="UTF-8"?>
<svg width="362px" height="59px" viewBox="0 0 362 59" version="1.1" xmlns="http://www.w3.org/2000/svg" xmlns:xlink="http://www.w3.org/1999/xlink">
    <!-- Generator: Sketch 41.2 (35397) - http://www.bohemiancoding.com/sketch -->
    <title>Group</title>
    <desc>Created with Sketch.</desc>
    <defs></defs>
    <g id="Page-1" stroke="none" stroke-width="1" fill="none" fill-rule="evenodd">
        <g id="Group">
            <path fill="currentColor" d="M17.92.21l17.77 51.82 10.3-7.53L26.96 0l-9.04.21z"></path>
                    <path fill="currentColor" d="M0 33.8l35.7 18.25 10.31-7.54L3.44 22.89 0 33.8z"></path>
                    <path fill="currentColor" d="M.06 52.21l16.83 5.95L26.95.02l-9.06.21L.06 52.21z"></path>
                    <path fill="none" d="M63.48 39.17h5.77l-2.87-6.46-2.9 6.46z"></path>
                    <path d="M67.45 29.92a.3.3 0 00-.27-.18h-1.56a.3.3 0 00-.27.18l-6.7 14.8a.33.33 0 000 .29.32.32 0 00.25.14h1.7a.31.31 0 00.3-.15l1.66-3.71h7.61L71.82 45a.28.28 0 00.27.18h1.79a.32.32 0 00.25-.14.33.33 0 000-.29zm-4 9.25l2.9-6.46 2.88 6.46zM86.18 43h-8V30.15a.31.31 0 00-.3-.31h-1.63a.3.3 0 00-.3.31v14.69a.3.3 0 00.3.31h9.93a.3.3 0 00.3-.31v-1.53a.3.3 0 00-.3-.31z" fill="currentColor"></path>
                    <path d="M96.8 32.73a4.38 4.38 0 00-2.69-.73h-3.43v5.89H94a5.46 5.46 0 001.57-.22 3.47 3.47 0 001.2-.67 2.71 2.71 0 00.74-.92 2.75 2.75 0 00.26-1.2 2.53 2.53 0 00-.97-2.15z" fill="none"></path>
                    <path d="M98.41 31.16a5.39 5.39 0 00-1.84-1 7.89 7.89 0 00-2.35-.34h-5.5a.31.31 0 00-.3.31v14.71a.31.31 0 00.3.31h1.66a.3.3 0 00.3-.31V40H94a8.26 8.26 0 002.31-.32 5.78 5.78 0 001.94-1 4.79 4.79 0 001.33-1.6 4.87 4.87 0 00.5-2.27 5 5 0 00-.42-2.08 4.28 4.28 0 00-1.25-1.57zm-.9 5a2.71 2.71 0 01-.74.92 3.47 3.47 0 01-1.18.61 5.46 5.46 0 01-1.57.22h-3.34V32h3.43a4.38 4.38 0 012.69.75 2.53 2.53 0 011 2.19 2.75 2.75 0 01-.29 1.18zM114 29.84h-1.66a.3.3 0 00-.3.31v6.23h-7.89v-6.23a.3.3 0 00-.3-.31h-1.66a.31.31 0 00-.3.31v14.69a.31.31 0 00.3.31h1.66a.3.3 0 00.3-.31v-6.31h7.89v6.31a.3.3 0 00.3.31H114a.31.31 0 00.3-.31V30.15a.31.31 0 00-.3-.31z" fill="currentColor"></path>
                    <path fill="none" d="M120.96 39.17h5.77l-2.88-6.46-2.89 6.46z"></path>
                    <path d="M124.93 29.92a.31.31 0 00-.28-.18h-1.55a.28.28 0 00-.27.18l-6.7 14.8a.3.3 0 000 .29.31.31 0 00.25.14h1.7a.28.28 0 00.27-.18l1.65-3.71h7.61l1.68 3.74a.31.31 0 00.28.18h1.78a.31.31 0 00.25-.14.3.3 0 000-.29zm-4 9.25l2.89-6.46 2.88 6.46zM151.22 41.23a.29.29 0 00-.42 0 8.92 8.92 0 01-2.07 1.51 5.36 5.36 0 01-2.47.52 5.2 5.2 0 01-2.13-.44 5.27 5.27 0 01-1.71-1.23 5.4 5.4 0 01-1.14-1.82 6.35 6.35 0 01-.41-2.32 6.2 6.2 0 01.41-2.25 5.55 5.55 0 011.14-1.83 5.16 5.16 0 013.84-1.64 5.32 5.32 0 012.46.53 8.93 8.93 0 012 1.4.29.29 0 00.21.08.27.27 0 00.21-.09l1.13-1.22a.29.29 0 000-.42 10.57 10.57 0 00-1.16-1 7.07 7.07 0 00-1.34-.77 7.48 7.48 0 00-1.56-.49 9 9 0 00-1.88-.18 7.6 7.6 0 00-3.1.63 7.43 7.43 0 00-2.45 1.7 8 8 0 00-1.6 2.52 8.49 8.49 0 000 6.17 7.55 7.55 0 001.6 2.5 7.37 7.37 0 002.43 1.67 7.54 7.54 0 003.06.62 8.43 8.43 0 001.89-.2 7.55 7.55 0 001.6-.55 7.91 7.91 0 001.39-.84 11.21 11.21 0 001.22-1.09.3.3 0 000-.42z" fill="currentColor"></path>
                    <path fill="none" d="M157.77 39.17h5.77l-2.87-6.46-2.9 6.46z"></path>
                    <path d="M161.74 29.92a.3.3 0 00-.27-.18h-1.56a.29.29 0 00-.27.18l-6.7 14.8a.33.33 0 000 .29.32.32 0 00.25.14h1.7a.31.31 0 00.28-.18l1.66-3.71h7.61L166.1 45a.31.31 0 00.28.18h1.78a.33.33 0 00.26-.14.33.33 0 000-.29zm-4 9.25l2.9-6.46 2.87 6.46z" fill="currentColor"></path>
                    <path d="M178.62 32.73a4.43 4.43 0 00-2.7-.75h-3.42v5.89h3.34a5.39 5.39 0 001.56-.22 3.62 3.62 0 001.19-.61 2.57 2.57 0 001-2.12 2.52 2.52 0 00-.97-2.19z" fill="none"></path>
                    <path d="M180.23 31.16a5.58 5.58 0 00-1.84-1 7.94 7.94 0 00-2.35-.34h-5.5a.3.3 0 00-.3.31v14.71a.3.3 0 00.3.31h1.66a.31.31 0 00.3-.31V40h3.27a8.37 8.37 0 002.31-.32 5.82 5.82 0 001.93-1 4.82 4.82 0 001.34-1.6 5.43 5.43 0 00.07-4.35 4.26 4.26 0 00-1.19-1.57zm-.9 5a2.71 2.71 0 01-.74.92 3.62 3.62 0 01-1.19.61 5.39 5.39 0 01-1.56.22h-3.34V32h3.42a4.43 4.43 0 012.7.75 2.52 2.52 0 011 2.19 2.71 2.71 0 01-.29 1.18z" fill="currentColor"></path>
                    <rect x="183.89" y="29.84" width="2.26" height="15.3" rx=".3" fill="currentColor"></rect>
                    <path d="M200.1 29.84h-11.52a.3.3 0 00-.3.31v1.53a.3.3 0 00.3.3h4.63v12.86a.3.3 0 00.3.31h1.66a.3.3 0 00.3-.31V32h4.63a.3.3 0 00.3-.3v-1.55a.3.3 0 00-.3-.31z" fill="currentColor"></path>
                    <path fill="none" d="M206.01 39.17h5.77l-2.88-6.46-2.89 6.46z"></path>
                    <path d="M210 29.92a.31.31 0 00-.28-.18h-1.55a.31.31 0 00-.28.18l-6.7 14.8a.3.3 0 000 .29.31.31 0 00.25.14h1.7a.28.28 0 00.27-.18l1.67-3.71h7.61l1.65 3.74a.31.31 0 00.28.18h1.78a.31.31 0 00.25-.14.28.28 0 000-.29zm-4 9.25l2.89-6.46 2.88 6.46zM228.71 43h-8V30.15a.3.3 0 00-.3-.31h-1.66a.31.31 0 00-.3.31v14.69a.31.31 0 00.3.31h9.94a.31.31 0 00.3-.31v-1.53a.31.31 0 00-.28-.31zM247.75 43.05H239v-4.56h7.72a.3.3 0 00.3-.3V36.7a.29.29 0 00-.3-.3H239v-4.46h8.67a.31.31 0 00.3-.3v-1.49a.31.31 0 00-.3-.31H237a.31.31 0 00-.3.31v14.69a.31.31 0 00.3.31h10.73a.3.3 0 00.3-.31v-1.49a.3.3 0 00-.28-.3z" fill="currentColor"></path>
                    <path d="M259.9 33.58a5.24 5.24 0 00-1.82-1.17 6.42 6.42 0 00-2.41-.43h-3.14V43h3.14a6.63 6.63 0 002.41-.42 5 5 0 003-2.89 5.76 5.76 0 00.41-2.16 5.84 5.84 0 00-.41-2.21 5.22 5.22 0 00-1.18-1.74z" fill="none"></path>
                    <path d="M261.52 32a7.67 7.67 0 00-2.58-1.61 9.1 9.1 0 00-3.27-.58h-5.1a.3.3 0 00-.3.31v14.72a.3.3 0 00.3.31h5.1a8.89 8.89 0 003.27-.59 7.87 7.87 0 002.57-1.62 7.11 7.11 0 001.68-2.43 7.8 7.8 0 00.59-3.06 7.65 7.65 0 00-.59-3 7.28 7.28 0 00-1.67-2.45zm-.47 7.67a5 5 0 01-3 2.89 6.63 6.63 0 01-2.41.42h-3.14V32h3.14a6.42 6.42 0 012.41.43 5.13 5.13 0 013 2.92 5.84 5.84 0 01.41 2.21 5.76 5.76 0 01-.41 2.14zM278.48 29.84h-1.66a.3.3 0 00-.3.31v8.54a4.75 4.75 0 01-1.11 3.42 4.07 4.07 0 01-3 1.13 4 4 0 01-3.09-1.18 4.92 4.92 0 01-1.11-3.47v-8.44a.3.3 0 00-.3-.31h-1.66a.31.31 0 00-.3.31v8.54a8.41 8.41 0 00.46 2.86 5.83 5.83 0 001.32 2.11 5.63 5.63 0 002 1.29 7.65 7.65 0 002.59.43A7.74 7.74 0 00275 45a5.65 5.65 0 002-1.3 5.91 5.91 0 001.32-2.15 8.75 8.75 0 00.46-2.93v-8.47a.31.31 0 00-.3-.31zM293.6 41.23a.29.29 0 00-.42 0 9.14 9.14 0 01-2.07 1.51 5.42 5.42 0 01-2.47.52 5.2 5.2 0 01-2.13-.44 5.27 5.27 0 01-1.71-1.23 5.4 5.4 0 01-1.14-1.82 6.35 6.35 0 01-.41-2.32 6.2 6.2 0 01.41-2.25 5.55 5.55 0 011.14-1.83 5.16 5.16 0 013.84-1.64 5.28 5.28 0 012.45.53 8.49 8.49 0 012 1.4.27.27 0 00.22.08.29.29 0 00.21-.09l1.13-1.22a.3.3 0 000-.42 10.57 10.57 0 00-1.16-1 7.07 7.07 0 00-1.34-.77 7.68 7.68 0 00-1.56-.49 9 9 0 00-1.88-.18 7.57 7.57 0 00-3.1.63 7.33 7.33 0 00-2.45 1.7 8 8 0 00-1.6 2.52 8.49 8.49 0 000 6.17 7.55 7.55 0 001.6 2.5 7.37 7.37 0 002.43 1.67 7.54 7.54 0 003.06.62 8.43 8.43 0 001.89-.2 7.68 7.68 0 003-1.39 9.61 9.61 0 001.22-1.09.3.3 0 000-.42z" fill="currentColor"></path>
                    <path fill="none" d="M300.15 39.17h5.77l-2.87-6.46-2.9 6.46z"></path>
                    <path d="M304.12 29.92a.31.31 0 00-.28-.18h-1.55a.28.28 0 00-.27.18l-6.7 14.8a.3.3 0 000 .29.31.31 0 00.25.14h1.7a.28.28 0 00.27-.18l1.67-3.71h7.61l1.66 3.74a.31.31 0 00.28.18h1.78a.34.34 0 00.26-.14.33.33 0 000-.29zm-4 9.25l2.9-6.46 2.87 6.46zM323.39 29.84h-11.52a.3.3 0 00-.3.31v1.53a.3.3 0 00.3.3h4.63v12.86a.3.3 0 00.3.31h1.66a.3.3 0 00.3-.31V32h4.63a.3.3 0 00.3-.3v-1.55a.3.3 0 00-.3-.31z" fill="currentColor"></path>
                    <rect x="325.84" y="29.84" width="2.26" height="15.3" rx=".3" fill="currentColor"></rect>
                    <path d="M342.35 33.42a5.69 5.69 0 00-1.74-1.24 5.34 5.34 0 00-2.2-.45 5.23 5.23 0 00-3.92 1.66 5.86 5.86 0 00-1.49 4.06 6.31 6.31 0 00.4 2.3 5.7 5.7 0 001.15 1.82 5.44 5.44 0 006.14 1.25 5.32 5.32 0 001.72-1.22 6.06 6.06 0 001.54-4.06 6.11 6.11 0 00-.42-2.3 5.5 5.5 0 00-1.18-1.82z" fill="none"></path>
                    <path d="M344.09 31.94a7.7 7.7 0 00-2.46-1.71 7.85 7.85 0 00-3.18-.64 7.77 7.77 0 00-3.19.65 7.91 7.91 0 00-2.47 1.76 7.72 7.72 0 00-1.59 2.52 8.35 8.35 0 000 6 7.73 7.73 0 001.58 2.52 7.65 7.65 0 002.46 1.71 8.19 8.19 0 006.37 0 8.05 8.05 0 002.46-1.75 7.87 7.87 0 001.59-2.53 8.05 8.05 0 00.57-3 8.18 8.18 0 00-.56-3 7.73 7.73 0 00-1.58-2.53zm-.6 7.84a5.92 5.92 0 01-1.12 1.82 5.32 5.32 0 01-1.72 1.22 5.44 5.44 0 01-6.14-1.25 5.7 5.7 0 01-1.15-1.82 6.31 6.31 0 01-.4-2.3 5.86 5.86 0 011.53-4.06 5.23 5.23 0 013.92-1.66 5.34 5.34 0 012.2.45 5.69 5.69 0 011.74 1.24 5.5 5.5 0 011.14 1.82 6.11 6.11 0 01.42 2.3 5.91 5.91 0 01-.42 2.24zM361.34 29.84h-1.62a.31.31 0 00-.3.31v10.91L350.7 30a.33.33 0 00-.24-.12h-1.55a.3.3 0 00-.3.31v14.65a.3.3 0 00.3.31h1.62a.31.31 0 00.3-.31V33.66L359.78 45a.33.33 0 00.24.12h1.32a.3.3 0 00.3-.31V30.15a.3.3 0 00-.3-.31z" fill="currentColor"></path>
        </g>
    </g>
</svg>