<?xml version="1.0" encoding="UTF-8"?>
<svg width="362px" height="59px" viewBox="0 0 362 59" version="1.1" xmlns="http://www.w3.org/2000/svg" xmlns:xlink="http://www.w3.org/1999/xlink">
    <!-- Generator: Sketch 41.2 (35397) - http://www.bohemiancoding.com/sketch -->
    <title>Group</title>
    <desc>Created with Sketch.</desc>
    <defs></defs>
    <g id="Page-1" stroke="none" stroke-width="1" fill="none" fill-rule="evenodd">
        <g id="Group">
            <polyline id="Fill-3" fill="#24478B" points="18.202 0.955 27.24 0.742 46.272 45.244 35.976 52.774 18.202 0.955"></polyline>
            <polyline id="Fill-4" fill="#8CAFD1" points="0.283 34.547 3.725 23.635 46.296 45.252 35.982 52.797 0.283 34.547"></polyline>
            <polyline id="Fill-5" fill="#CF292A" points="0.338 52.948 18.17 0.969 27.233 0.758 17.174 58.907 0.338 52.948"></polyline>
            <path d="M69.538,39.911 L63.765,39.911 L66.66,33.449 L69.538,39.911 Z M67.732,30.658 C67.684,30.551 67.577,30.482 67.459,30.482 L65.905,30.482 C65.788,30.482 65.681,30.551 65.632,30.658 L58.933,45.463 C58.891,45.556 58.899,45.664 58.954,45.749 C59.009,45.835 59.104,45.886 59.206,45.886 L60.907,45.886 C61.025,45.886 61.132,45.817 61.181,45.71 L62.845,42.002 L70.456,42.002 L72.099,45.708 C72.147,45.817 72.254,45.886 72.373,45.886 L74.158,45.886 C74.26,45.886 74.355,45.835 74.41,45.749 C74.465,45.664 74.474,45.556 74.432,45.463 L67.732,30.658 L67.732,30.658 Z" id="Fill-6" fill="#24478B"></path>
            <path d="M86.464,43.754 L78.49,43.754 L78.49,30.886 C78.49,30.721 78.355,30.587 78.19,30.587 L76.531,30.587 C76.366,30.587 76.231,30.721 76.231,30.886 L76.231,45.587 C76.231,45.752 76.366,45.886 76.531,45.886 L86.464,45.886 C86.63,45.886 86.764,45.752 86.764,45.587 L86.764,44.053 C86.764,43.888 86.63,43.754 86.464,43.754" id="Fill-7" fill="#24478B"></path>
            <path d="M94.307,38.609 L90.963,38.609 L90.963,32.719 L94.391,32.719 C95.511,32.719 96.418,32.973 97.086,33.471 C97.735,33.956 98.05,34.66 98.05,35.664 C98.05,36.107 97.964,36.51 97.794,36.862 C97.626,37.212 97.377,37.521 97.057,37.78 C96.729,38.043 96.329,38.248 95.871,38.39 C95.405,38.535 94.879,38.609 94.307,38.609 Z M98.698,31.905 C98.188,31.484 97.568,31.154 96.855,30.927 C96.148,30.701 95.358,30.587 94.506,30.587 L89.005,30.587 C88.839,30.587 88.705,30.721 88.705,30.886 L88.705,45.587 C88.705,45.752 88.839,45.886 89.005,45.886 L90.664,45.886 C90.829,45.886 90.963,45.752 90.963,45.587 L90.963,40.699 L94.233,40.699 C95.042,40.699 95.82,40.593 96.543,40.383 C97.274,40.172 97.926,39.847 98.481,39.419 C99.038,38.989 99.486,38.45 99.814,37.818 C100.142,37.181 100.308,36.432 100.308,35.549 C100.308,34.78 100.168,34.081 99.893,33.472 C99.618,32.859 99.215,32.332 98.698,31.905 L98.698,31.905 Z" id="Fill-8" fill="#24478B"></path>
            <path d="M114.31,30.587 L112.651,30.587 C112.485,30.587 112.351,30.721 112.351,30.886 L112.351,37.118 L104.467,37.118 L104.467,30.886 C104.467,30.721 104.333,30.587 104.167,30.587 L102.508,30.587 C102.343,30.587 102.208,30.721 102.208,30.886 L102.208,45.587 C102.208,45.752 102.343,45.886 102.508,45.886 L104.167,45.886 C104.333,45.886 104.467,45.752 104.467,45.587 L104.467,39.271 L112.351,39.271 L112.351,45.587 C112.351,45.752 112.485,45.886 112.651,45.886 L114.31,45.886 C114.476,45.886 114.61,45.752 114.61,45.587 L114.61,30.886 C114.61,30.721 114.476,30.587 114.31,30.587" id="Fill-9" fill="#24478B"></path>
            <path d="M127.015,39.911 L121.241,39.911 L124.137,33.449 L127.015,39.911 Z M125.209,30.658 C125.161,30.551 125.054,30.482 124.936,30.482 L123.381,30.482 C123.264,30.482 123.157,30.551 123.108,30.658 L116.41,45.463 C116.368,45.556 116.376,45.664 116.431,45.749 C116.486,45.835 116.581,45.886 116.683,45.886 L118.383,45.886 C118.501,45.886 118.608,45.817 118.657,45.71 L120.321,42.002 L127.932,42.002 L129.576,45.708 C129.624,45.817 129.731,45.886 129.85,45.886 L131.635,45.886 C131.737,45.886 131.832,45.835 131.887,45.749 C131.942,45.664 131.951,45.556 131.909,45.463 L125.209,30.658 L125.209,30.658 Z" id="Fill-10" fill="#24478B"></path>
            <path d="M151.5,41.97 C151.384,41.856 151.199,41.856 151.083,41.969 C150.407,42.617 149.71,43.126 149.013,43.482 C148.33,43.83 147.5,44.006 146.544,44.006 C145.78,44.006 145.062,43.856 144.412,43.56 C143.757,43.263 143.181,42.851 142.7,42.337 C142.217,41.821 141.835,41.207 141.563,40.511 C141.292,39.816 141.154,39.051 141.154,38.195 C141.154,37.394 141.292,36.637 141.563,35.942 C141.835,35.246 142.217,34.632 142.7,34.116 C143.18,33.602 143.755,33.195 144.409,32.904 C145.061,32.615 145.779,32.468 146.544,32.468 C147.498,32.468 148.324,32.647 148.999,33 C149.693,33.365 150.354,33.837 150.96,34.403 C151.018,34.457 151.087,34.474 151.175,34.484 C151.255,34.481 151.33,34.447 151.384,34.388 L152.518,33.17 C152.629,33.05 152.625,32.863 152.506,32.749 C152.133,32.391 151.741,32.061 151.342,31.768 C150.935,31.47 150.485,31.212 150.004,31 C149.525,30.79 149,30.625 148.443,30.509 C147.886,30.393 147.254,30.335 146.566,30.335 C145.452,30.335 144.408,30.544 143.463,30.958 C142.52,31.372 141.695,31.946 141.015,32.665 C140.333,33.382 139.793,34.23 139.41,35.185 C139.026,36.14 138.832,37.167 138.832,38.279 C138.832,39.362 139.026,40.396 139.41,41.351 C139.793,42.307 140.334,43.149 141.016,43.853 C141.698,44.557 142.514,45.12 143.443,45.526 C144.373,45.932 145.402,46.138 146.502,46.138 C147.194,46.138 147.832,46.073 148.397,45.942 C148.961,45.812 149.497,45.628 149.99,45.396 C150.481,45.165 150.948,44.882 151.378,44.555 C151.801,44.232 152.211,43.865 152.598,43.464 C152.712,43.346 152.71,43.157 152.592,43.041 L151.5,41.97" id="Fill-11" fill="#24478B"></path>
            <path d="M163.828,39.911 L158.054,39.911 L160.95,33.449 L163.828,39.911 Z M162.022,30.658 C161.973,30.551 161.866,30.482 161.749,30.482 L160.194,30.482 C160.076,30.482 159.969,30.551 159.92,30.658 L153.222,45.463 C153.18,45.556 153.188,45.664 153.244,45.749 C153.299,45.835 153.394,45.886 153.496,45.886 L155.196,45.886 C155.314,45.886 155.421,45.817 155.47,45.71 L157.133,42.002 L164.745,42.002 L166.388,45.708 C166.437,45.817 166.544,45.886 166.663,45.886 L168.448,45.886 C168.55,45.886 168.645,45.835 168.7,45.749 C168.755,45.664 168.763,45.556 168.721,45.463 L162.022,30.658 L162.022,30.658 Z" id="Fill-12" fill="#24478B"></path>
            <path d="M176.122,38.609 L172.779,38.609 L172.779,32.719 L176.206,32.719 C177.327,32.719 178.233,32.973 178.901,33.471 C179.549,33.956 179.865,34.66 179.865,35.664 C179.865,36.108 179.779,36.511 179.61,36.862 C179.441,37.211 179.193,37.52 178.871,37.78 C178.544,38.043 178.145,38.248 177.686,38.39 C177.22,38.535 176.693,38.609 176.122,38.609 Z M180.513,31.905 C180.004,31.484 179.384,31.155 178.671,30.927 C177.964,30.701 177.173,30.587 176.322,30.587 L170.82,30.587 C170.654,30.587 170.52,30.721 170.52,30.886 L170.52,45.587 C170.52,45.752 170.654,45.886 170.82,45.886 L172.479,45.886 C172.645,45.886 172.779,45.752 172.779,45.587 L172.779,40.699 L176.048,40.699 C176.857,40.699 177.634,40.593 178.358,40.383 C179.091,40.171 179.743,39.847 180.295,39.419 C180.852,38.989 181.3,38.45 181.628,37.818 C181.957,37.182 182.124,36.433 182.124,35.549 C182.124,34.782 181.984,34.083 181.708,33.472 C181.432,32.859 181.03,32.332 180.513,31.905 L180.513,31.905 Z" id="Fill-13" fill="#24478B"></path>
            <path d="M186.128,30.587 L184.469,30.587 C184.304,30.587 184.169,30.721 184.169,30.886 L184.169,45.587 C184.169,45.752 184.304,45.886 184.469,45.886 L186.128,45.886 C186.294,45.886 186.428,45.752 186.428,45.587 L186.428,30.886 C186.428,30.721 186.294,30.587 186.128,30.587" id="Fill-14" fill="#24478B"></path>
            <path d="M200.387,30.587 L188.859,30.587 C188.693,30.587 188.559,30.721 188.559,30.886 L188.559,32.42 C188.559,32.585 188.693,32.719 188.859,32.719 L193.494,32.719 L193.494,45.587 C193.494,45.752 193.627,45.886 193.793,45.886 L195.453,45.886 C195.619,45.886 195.752,45.752 195.752,45.587 L195.752,32.719 L200.387,32.719 C200.553,32.719 200.687,32.585 200.687,32.42 L200.687,30.886 C200.687,30.721 200.553,30.587 200.387,30.587" id="Fill-15" fill="#24478B"></path>
            <path d="M212.064,39.911 L206.29,39.911 L209.186,33.449 L212.064,39.911 Z M210.258,30.658 C210.209,30.551 210.103,30.482 209.985,30.482 L208.43,30.482 C208.312,30.482 208.206,30.551 208.157,30.658 L201.458,45.463 C201.417,45.556 201.424,45.664 201.48,45.749 C201.535,45.835 201.63,45.886 201.732,45.886 L203.432,45.886 C203.55,45.886 203.658,45.817 203.706,45.71 L205.37,42.002 L212.981,42.002 L214.625,45.708 C214.672,45.817 214.781,45.886 214.899,45.886 L216.684,45.886 C216.786,45.886 216.881,45.835 216.936,45.749 C216.992,45.664 217,45.556 216.958,45.463 L210.258,30.658 L210.258,30.658 Z" id="Fill-16" fill="#24478B"></path>
            <path d="M228.989,43.754 L221.015,43.754 L221.015,30.886 C221.015,30.721 220.881,30.587 220.715,30.587 L219.056,30.587 C218.89,30.587 218.756,30.721 218.756,30.886 L218.756,45.587 C218.756,45.752 218.89,45.886 219.056,45.886 L228.989,45.886 C229.155,45.886 229.289,45.752 229.289,45.587 L229.289,44.053 C229.289,43.888 229.155,43.754 228.989,43.754" id="Fill-17" fill="#24478B"></path>
            <path d="M248.036,43.796 L239.264,43.796 L239.264,39.229 L246.986,39.229 C247.152,39.229 247.286,39.095 247.286,38.93 L247.286,37.439 C247.286,37.273 247.152,37.139 246.986,37.139 L239.264,37.139 L239.264,32.677 L247.931,32.677 C248.097,32.677 248.231,32.543 248.231,32.378 L248.231,30.886 C248.231,30.721 248.097,30.587 247.931,30.587 L237.305,30.587 C237.139,30.587 237.005,30.721 237.005,30.886 L237.005,45.587 C237.005,45.752 237.139,45.886 237.305,45.886 L248.036,45.886 C248.202,45.886 248.335,45.752 248.335,45.587 L248.335,44.096 C248.335,43.93 248.202,43.796 248.036,43.796" id="Fill-18" fill="#24478B"></path>
            <path d="M255.953,43.754 L252.809,43.754 L252.809,32.719 L255.953,32.719 C256.835,32.719 257.646,32.865 258.362,33.15 C259.078,33.435 259.69,33.829 260.182,34.323 C260.676,34.816 261.064,35.405 261.334,36.071 C261.606,36.741 261.744,37.469 261.744,38.279 C261.744,39.046 261.606,39.775 261.334,40.445 C261.065,41.11 260.677,41.694 260.183,42.181 C259.691,42.668 259.08,43.055 258.365,43.333 C257.647,43.612 256.835,43.754 255.953,43.754 Z M261.798,32.769 C261.081,32.087 260.213,31.547 259.222,31.163 C258.232,30.781 257.131,30.587 255.953,30.587 L250.85,30.587 C250.684,30.587 250.55,30.721 250.55,30.886 L250.55,45.587 C250.55,45.752 250.684,45.886 250.85,45.886 L255.953,45.886 C257.133,45.886 258.234,45.689 259.224,45.299 C260.215,44.909 261.081,44.365 261.797,43.683 C262.518,43 263.082,42.182 263.474,41.251 C263.867,40.322 264.065,39.308 264.065,38.195 C264.065,37.124 263.866,36.113 263.474,35.19 C263.082,34.267 262.517,33.452 261.798,32.769 L261.798,32.769 Z" id="Fill-19" fill="#24478B"></path>
            <path d="M278.758,30.587 L277.099,30.587 C276.933,30.587 276.799,30.721 276.799,30.886 L276.799,39.434 C276.799,40.955 276.425,42.107 275.689,42.856 C274.953,43.605 273.936,43.985 272.668,43.985 C271.33,43.985 270.32,43.597 269.581,42.8 C268.846,42.007 268.474,40.839 268.474,39.329 L268.474,30.886 C268.474,30.721 268.34,30.587 268.174,30.587 L266.515,30.587 C266.349,30.587 266.215,30.721 266.215,30.886 L266.215,39.434 C266.215,40.499 266.37,41.46 266.675,42.288 C266.983,43.125 267.427,43.836 267.994,44.402 C268.561,44.969 269.248,45.403 270.036,45.69 C270.813,45.974 271.685,46.117 272.626,46.117 C273.583,46.117 274.461,45.974 275.239,45.69 C276.027,45.402 276.714,44.965 277.282,44.39 C277.849,43.815 278.292,43.094 278.6,42.245 C278.904,41.405 279.058,40.417 279.058,39.308 L279.058,30.886 C279.058,30.721 278.924,30.587 278.758,30.587" id="Fill-20" fill="#24478B"></path>
            <path d="M293.878,41.97 C293.762,41.857 293.579,41.857 293.46,41.969 C292.785,42.617 292.088,43.126 291.391,43.482 C290.708,43.83 289.877,44.006 288.922,44.006 C288.158,44.006 287.44,43.856 286.79,43.56 C286.135,43.263 285.559,42.851 285.078,42.337 C284.595,41.821 284.212,41.207 283.941,40.511 C283.669,39.816 283.532,39.051 283.532,38.195 C283.532,37.394 283.669,36.637 283.941,35.942 C284.212,35.246 284.595,34.632 285.078,34.116 C285.558,33.602 286.133,33.195 286.788,32.904 C287.439,32.615 288.157,32.468 288.922,32.468 C289.876,32.468 290.702,32.647 291.376,33 C292.072,33.365 292.731,33.837 293.337,34.403 C293.396,34.458 293.475,34.489 293.553,34.484 C293.632,34.481 293.708,34.447 293.762,34.388 L294.896,33.17 C295.007,33.05 295.002,32.863 294.884,32.749 C294.51,32.391 294.119,32.061 293.719,31.768 C293.313,31.47 292.863,31.212 292.381,31 C291.903,30.79 291.377,30.625 290.821,30.509 C290.264,30.393 289.632,30.335 288.944,30.335 C287.83,30.335 286.786,30.544 285.841,30.958 C284.897,31.372 284.074,31.946 283.392,32.665 C282.711,33.382 282.171,34.23 281.788,35.185 C281.404,36.14 281.209,37.167 281.209,38.279 C281.209,39.362 281.404,40.396 281.788,41.351 C282.171,42.307 282.711,43.149 283.394,43.853 C284.076,44.557 284.892,45.12 285.821,45.526 C286.75,45.932 287.781,46.138 288.88,46.138 C289.572,46.138 290.209,46.073 290.775,45.942 C291.339,45.812 291.875,45.628 292.369,45.396 C292.859,45.165 293.326,44.882 293.755,44.555 C294.179,44.232 294.589,43.865 294.976,43.464 C295.09,43.346 295.087,43.157 294.97,43.041 L293.878,41.97" id="Fill-21" fill="#24478B"></path>
            <path d="M306.206,39.911 L300.431,39.911 L303.328,33.449 L306.206,39.911 Z M304.4,30.658 C304.351,30.551 304.245,30.482 304.126,30.482 L302.572,30.482 C302.454,30.482 302.347,30.551 302.298,30.658 L295.6,45.463 C295.558,45.556 295.566,45.664 295.622,45.749 C295.676,45.835 295.772,45.886 295.874,45.886 L297.574,45.886 C297.692,45.886 297.799,45.817 297.847,45.71 L299.511,42.002 L307.123,42.002 L308.766,45.708 C308.814,45.817 308.922,45.886 309.041,45.886 L310.826,45.886 C310.927,45.886 311.023,45.835 311.078,45.749 C311.133,45.664 311.141,45.556 311.099,45.463 L304.4,30.658 L304.4,30.658 Z" id="Fill-22" fill="#24478B"></path>
            <path d="M323.677,30.587 L312.149,30.587 C311.983,30.587 311.849,30.721 311.849,30.886 L311.849,32.42 C311.849,32.585 311.983,32.719 312.149,32.719 L316.784,32.719 L316.784,45.587 C316.784,45.752 316.917,45.886 317.083,45.886 L318.743,45.886 C318.909,45.886 319.042,45.752 319.042,45.587 L319.042,32.719 L323.677,32.719 C323.843,32.719 323.977,32.585 323.977,32.42 L323.977,30.886 C323.977,30.721 323.843,30.587 323.677,30.587" id="Fill-23" fill="#24478B"></path>
            <path d="M328.086,30.587 L326.427,30.587 C326.261,30.587 326.127,30.721 326.127,30.886 L326.127,45.587 C326.127,45.752 326.261,45.886 326.427,45.886 L328.086,45.886 C328.252,45.886 328.386,45.752 328.386,45.587 L328.386,30.886 C328.386,30.721 328.252,30.587 328.086,30.587" id="Fill-24" fill="#24478B"></path>
            <path d="M336.538,43.55 C335.87,43.245 335.283,42.83 334.793,42.314 C334.304,41.8 333.919,41.186 333.647,40.491 C333.375,39.795 333.238,39.037 333.238,38.195 C333.238,37.395 333.375,36.64 333.647,35.953 C333.919,35.263 334.298,34.651 334.775,34.136 C335.25,33.621 335.828,33.211 336.494,32.914 C337.158,32.618 337.897,32.468 338.692,32.468 C339.484,32.468 340.223,32.621 340.888,32.924 C341.557,33.229 342.144,33.644 342.631,34.159 C343.121,34.674 343.505,35.287 343.778,35.984 C344.05,36.68 344.188,37.438 344.188,38.279 C344.188,39.077 344.05,39.832 343.778,40.521 C343.505,41.211 343.126,41.823 342.65,42.338 C342.176,42.852 341.598,43.263 340.932,43.559 C339.602,44.153 337.866,44.155 336.538,43.55 Z M344.37,32.686 C343.688,31.968 342.861,31.39 341.911,30.969 C340.958,30.548 339.89,30.335 338.734,30.335 C337.578,30.335 336.504,30.552 335.545,30.98 C334.589,31.408 333.758,31.989 333.077,32.707 C332.396,33.424 331.859,34.272 331.482,35.229 C331.106,36.182 330.916,37.195 330.916,38.279 C330.916,39.32 331.103,40.328 331.472,41.275 C331.84,42.223 332.374,43.069 333.056,43.788 C333.738,44.507 334.565,45.084 335.515,45.504 C336.466,45.925 337.536,46.138 338.692,46.138 C339.849,46.138 340.921,45.921 341.879,45.493 C342.834,45.066 343.666,44.486 344.348,43.767 C345.03,43.049 345.566,42.201 345.943,41.244 C346.319,40.291 346.509,39.279 346.509,38.237 L346.509,38.195 C346.509,37.155 346.323,36.147 345.954,35.198 C345.584,34.25 345.051,33.405 344.37,32.686 L344.37,32.686 Z" id="Fill-25" fill="#24478B"></path>
            <path d="M361.624,30.587 L360.006,30.587 C359.84,30.587 359.707,30.721 359.707,30.886 L359.707,41.801 L350.982,30.701 C350.924,30.629 350.837,30.587 350.746,30.587 L349.192,30.587 C349.026,30.587 348.892,30.721 348.892,30.886 L348.892,45.587 C348.892,45.752 349.026,45.886 349.192,45.886 L350.809,45.886 C350.975,45.886 351.109,45.752 351.109,45.587 L351.109,34.398 L360.066,45.772 C360.123,45.844 360.209,45.886 360.301,45.886 L361.624,45.886 C361.79,45.886 361.923,45.752 361.923,45.587 L361.923,30.886 C361.923,30.721 361.79,30.587 361.624,30.587" id="Fill-26" fill="#24478B"></path>
        </g>
    </g>
</svg>