<svg xmlns="http://www.w3.org/2000/svg" viewBox="0 0 105.61 107.27" fill="#5e6d7b"><defs><clipPath id="a" transform="translate(5 5)"><path d="M40.8 84.53v-7.1a24.08 24.08 0 0014 0v7.24a27.13 27.13 0 01-6.75.83 27.48 27.48 0 01-7.25-.97zm15.5-16a1 1 0 01-1 1h-5a1 1 0 010-2h5a1 1 0 011 .97zm-29.5-14v-17C35.15 36 44.89 31.8 49.19 24.54c3.39 6 11.84 11 19.61 11.54v18.39a20.86 20.86 0 01-.4 4.06c-1.12 4.12-4.3 6.66-9.72 7.85a4 4 0 00-3.38-1.88h-5a4 4 0 000 8h5a4 4 0 003.91-3.17 21.82 21.82 0 004.86-1.6A21 21 0 0126.8 54.47zm45-1a3.39 3.39 0 000-.45V40.55a4.23 4.23 0 01.5 0A3.5 3.5 0 0175.8 44v6a3.5 3.5 0 01-3.5 3.5 3.91 3.91 0 01-.48-.05zM20.6 67.5a6.78 6.78 0 01-6.8-6.74V37.07a34 34 0 1168 0v23.69A6.77 6.77 0 0175 67.5h-7.06a23.79 23.79 0 003.38-8.23 16.31 16.31 0 00.47-2.81h.51A6.51 6.51 0 0078.8 50v-6a6.51 6.51 0 00-6.5-6.5h-.5V36c.38 0 .76-.06 1.13-.12a1.5 1.5 0 00-.5-3C64 34.36 52.1 27.4 50.78 20.35a1.5 1.5 0 00-1.39-1.22 1.48 1.48 0 00-1.52 1.05C44.84 30 30.49 34.78 21.27 35a1.5 1.5 0 000 3c.79 0 1.62-.08 2.46-.16v16.63a23.93 23.93 0 003.86 13zm75 27.23a78.29 78.29 0 00-37.8-12.15v-6.3a24.18 24.18 0 007.85-5.78H75a9.78 9.78 0 009.79-9.74V37.07a37 37 0 10-74 0v23.69a9.78 9.78 0 009.8 9.74H30a24.25 24.25 0 007.84 5.78v6.3A78.21 78.21 0 000 94.73l1.61 2.54a73.66 73.66 0 0134.1-11.51 27.27 27.27 0 0012.34 2.74 27.43 27.43 0 0012.29-2.7A73.68 73.68 0 0194 97.27z" fill="none" clip-rule="evenodd"/></clipPath></defs><g clip-path="url(#a)"><path d="M0 0h105.61v107.27H0z"/></g></svg>
