<svg xmlns="http://www.w3.org/2000/svg" viewBox="0 0 84 84" fill="#5e6d7b"><defs><clipPath id="a" transform="translate(5 4.64)"><path d="M53 54.36h14.59a35 35 0 01-23.81 17.38 24.55 24.55 0 006.16-8.5A48.33 48.33 0 0053 54.36zm-15 0h12.94a45.62 45.62 0 01-2.81 8c-2.76 5.86-6.36 9.41-10.13 9.94zm-14.94 0H36V72.3c-3.77-.53-7.37-4.08-10.12-9.91a44.82 44.82 0 01-2.82-8.03zm-16.65 0H21a48.33 48.33 0 003.09 8.88 24.55 24.55 0 006.16 8.5A35 35 0 016.41 54.36zm48.59-16h17a34.86 34.86 0 01-3.31 14H53.47a72.12 72.12 0 001.53-14zm-17 0h15a70.71 70.71 0 01-1.56 14H38zm-17 0h15v14H22.59a70.71 70.71 0 01-1.59-14zm-19 0h17a72.12 72.12 0 001.5 14H5.34a34.86 34.86 0 01-3.34-14zm51.44-16h15.19a34.93 34.93 0 013.34 14H55a72.29 72.29 0 00-1.53-14zm-15.44 0h13.41a70.06 70.06 0 011.56 14H38zm-15.41 0H36v14H21a70.06 70.06 0 011.59-14zm-17.21 0h15.15a72.29 72.29 0 00-1.5 14H2a34.77 34.77 0 013.38-14zM43.78 3a35 35 0 0123.81 17.36H53a48.29 48.29 0 00-3.09-8.9A24.09 24.09 0 0043.78 3zM30.22 3a24.09 24.09 0 00-6.16 8.44A48.29 48.29 0 0021 20.36H6.41A35 35 0 0130.22 3zM38 2.46c3.77.53 7.37 4.05 10.13 9.87a45.91 45.91 0 012.81 8H38zm-2 0v17.9H23.06a45.1 45.1 0 012.82-8C28.63 6.51 32.23 3 36 2.46zm1-2.1a37 37 0 00-1 74 7.8 7.8 0 001 0h1a37 37 0 00-1-74z" fill="none" clip-rule="evenodd"/></clipPath></defs><g clip-path="url(#a)"><path d="M0 0h84v84H0z"/></g></svg>
