<svg xmlns="http://www.w3.org/2000/svg" viewBox="0 0 83.95 83.98" fill="#5e6d7b"><defs><clipPath id="a" transform="translate(4.98 4.63)"><path d="M47 42.38a5 5 0 11-5 5 5 5 0 015-5zm0-2a7 7 0 107 7 7 7 0 00-7-7zm-20-18a5 5 0 11-5 5 5 5 0 015-5zm0-2a7 7 0 107 7 7 7 0 00-7-7zm26 0a1 1 0 00-.69.31l-32 32a1 1 0 00-.25 1 1 1 0 00.72.71 1 1 0 001-.28l32-32a1 1 0 00-.78-1.77zM37 2.63l7.41 5.62a1 1 0 00.75.19l9.22-1.16 3.62 8.6a1 1 0 00.53.53L67.09 20l-1.15 9.22a1 1 0 00.19.75l5.62 7.41-5.62 7.4a1 1 0 00-.19.75l1.15 9.22-8.59 3.6a1 1 0 00-.53.53l-3.59 8.59-9.22-1.16a1 1 0 00-.75.19L37 72.13l-7.41-5.63a1 1 0 00-.75-.19l-9.21 1.16L16 58.88a1 1 0 00-.53-.53l-8.59-3.6 1.15-9.22a1 1 0 00-.18-.75l-5.63-7.4L7.88 30a1 1 0 00.18-.75L6.91 20l8.59-3.59a1 1 0 00.53-.53l3.6-8.6 9.21 1.16a1 1 0 00.75-.19zM36.84.38a.89.89 0 00-.43.22l-7.69 5.81-9.59-1.22a1 1 0 00-1.07.62l-3.72 8.91-8.9 3.72a1 1 0 00-.63 1.06L6 29.1.22 36.78a1 1 0 000 1.22L6 45.66l-1.19 9.59a1 1 0 00.63 1.06l8.9 3.69 3.72 8.91a1 1 0 001.07.62l9.59-1.21 7.69 5.81a1 1 0 001.18 0l7.69-5.81 9.6 1.21a1 1 0 001.06-.62L59.66 60l8.9-3.72a1 1 0 00.63-1.06L68 45.66 73.78 38a1 1 0 000-1.19L68 29.1l1.22-9.6a1 1 0 00-.63-1.06l-8.9-3.72-3.75-8.91a1 1 0 00-1.06-.62l-9.6 1.22L37.59.6a1 1 0 00-.75-.22z" fill="none" clip-rule="evenodd"/></clipPath></defs><g clip-path="url(#a)"><path d="M0 0h83.95v83.98H0z"/></g></svg>
